<svg id="Layer_1" data-name="Layer 1" xmlns="http://www.w3.org/2000/svg" viewBox="0 0 800 800"><title>CAD_1</title><path d="M702.59,60H97.41A34.67,34.67,0,0,0,62.78,94.58v429a34.62,34.62,0,0,0,34.58,34.58l226.75-.43v67.16h-33.7v25.3H509.59v-25.3h-33.7V557.69l226.75.43a34.62,34.62,0,0,0,34.58-34.58v-429A34.67,34.67,0,0,0,702.59,60Zm-252,564.85H349.41V557.62l50.59-.09,50.59.09ZM711.94,523.54a9.42,9.42,0,0,1-9.3,9.27L400,532.24l-302.64.57a9.42,9.42,0,0,1-9.3-9.27v-429a9.33,9.33,0,0,1,9.35-9.28H702.59a9.33,9.33,0,0,1,9.35,9.28Z" style="fill:#e54e3f"/><path d="M534.64,223.29l-128.4-74.91a12.53,12.53,0,0,0-7.2-1.58,12.92,12.92,0,0,0-5.36,1.62l-128.3,74.86a12.56,12.56,0,0,0-6.3,11V384a12.58,12.58,0,0,0,6.27,10.8L393.7,469.66a12.5,12.5,0,0,0,6.3,1.69,12.68,12.68,0,0,0,6.32-1.69l128.3-74.86a12.62,12.62,0,0,0,6.3-10.85V234.27A12.57,12.57,0,0,0,534.64,223.29Zm-147.23,93V436.86L284.25,376.7V256Zm116-82.11L400,294.43l-103.37-60.3L400,173.92ZM515.75,256V376.7L412.59,436.86V316.24Z" style="fill:#e54e3f"/></svg>