<svg xmlns="http://www.w3.org/2000/svg" viewBox="0 0 6166.99 6587.86"><title>color-bar-splash</title><g id="Layer_1" data-name="Layer 1"><rect x="1232.09" y="470.13" width="924.08" height="17.88" transform="translate(905.28 2216.82) rotate(-45)" style="fill:#fff;opacity:0.05"/><rect x="129.94" y="356.95" width="3502.01" height="17.88" transform="translate(1040.03 2315.77) rotate(-45)" style="fill:#fff;opacity:0.05"/><rect x="135.14" y="738.05" width="3024" height="17.88" transform="translate(702.07 2262.07) rotate(-45)" style="fill:#fff;opacity:0.05"/><rect x="1632.37" y="360.6" width="637.16" height="17.88" transform="translate(1057.95 2366.34) rotate(-45)" style="fill:#fff;opacity:0.05"/><rect x="767.64" y="727.39" width="1927.61" height="17.88" transform="translate(734.31 2318.56) rotate(-45)" style="fill:#fff;opacity:0.05"/><rect x="438" y="776.89" width="2635.18" height="17.88" transform="translate(706.37 2350.13) rotate(-45)" style="fill:#fff;opacity:0.05"/><rect x="863.22" y="954.22" width="1577.38" height="17.88" transform="translate(550.61 2328.75) rotate(-45)" style="fill:#fff;opacity:0.05"/><rect x="673.75" y="889.42" width="2233.19" height="17.88" transform="translate(636.98 2407.67) rotate(-45)" style="fill:#fff;opacity:0.05"/><rect x="482.55" y="950" width="2641.71" height="17.88" transform="translate(597.97 2434.65) rotate(-45)" style="fill:#fff;opacity:0.05"/><rect x="2077.01" y="659.82" width="180.44" height="17.88" transform="translate(909.72 2606.92) rotate(-45)" style="fill:#fff;opacity:0.05"/><rect x="1594.27" y="1166.43" width="427.29" height="17.88" transform="translate(446.25 2501.22) rotate(-45)" style="fill:#fff;opacity:0.05"/><rect x="1349.94" y="991.6" width="1560.2" height="17.88" transform="translate(664.22 2677.79) rotate(-45)" style="fill:#fff;opacity:0.05"/><rect x="1936.27" y="857.05" width="951.21" height="17.88" transform="translate(841.91 2837.67) rotate(-45)" style="fill:#fff;opacity:0.05"/><rect x="1703.43" y="1203.17" width="1019.22" height="17.88" transform="translate(538.93 2798.45) rotate(-45)" style="fill:#fff;opacity:0.05"/><rect x="1383.51" y="1334.74" width="1690.5" height="17.88" transform="translate(450.5 2848.1) rotate(-45)" style="fill:#fff;opacity:0.05"/><rect x="1688" y="1370.86" width="1303.85" height="17.88" transform="translate(457.52 2937.29) rotate(-45)" style="fill:#fff;opacity:0.05"/><rect x="863.95" y="1592.73" width="2802.8" height="17.88" transform="translate(278.79 2949.54) rotate(-45)" style="fill:#fff;opacity:0.05"/><rect x="928.05" y="1432.73" width="3289.17" height="17.88" transform="translate(481.93 3119.96) rotate(-45)" style="fill:#fff;opacity:0.05"/><rect x="1923.48" y="1827.47" width="1097.99" height="17.88" transform="translate(173.47 3164.75) rotate(-45)" style="fill:#fff;opacity:0.05"/><rect x="2426.02" y="1663.13" width="716.16" height="17.88" transform="translate(380.95 3336.97) rotate(-45)" style="fill:#fff;opacity:0.05"/><rect x="1535.97" y="1665.28" width="2786.54" height="17.88" transform="translate(421.94 3440.23) rotate(-45)" style="fill:#fff;opacity:0.05"/><rect x="1847.09" y="1841.58" width="1958.98" height="17.88" transform="translate(267.21 3419.28) rotate(-45)" style="fill:#fff;opacity:0.05"/><rect x="1139.68" y="1531.72" width="2962.52" height="17.88" transform="translate(426.08 3183.11) rotate(-45)" style="fill:#fff;opacity:0.05"/><rect x="229.01" y="898.24" width="3546.89" height="17.88" transform="translate(692.87 2560.23) rotate(-45)" style="fill:#fff;opacity:0.05"/><rect x="1616.03" y="852.51" width="1158.9" height="17.88" transform="translate(781.74 2683.33) rotate(-45)" style="fill:#fff;opacity:0.05"/><rect x="1670.42" y="776.76" width="1496.2" height="17.88" transform="translate(900.63 2818.85) rotate(-45)" style="fill:#fff;opacity:0.05"/><rect x="1713.39" y="862.53" width="1533.3" height="17.88" transform="translate(858 2887.48) rotate(-45)" style="fill:#fff;opacity:0.05"/><rect x="401.76" y="1469.73" width="3236.73" height="17.88" transform="translate(293.94 2740.11) rotate(-45)" style="fill:#fff;opacity:0.05"/><rect x="1023.43" y="1571.54" width="2084.35" height="17.88" transform="translate(235.27 2802.09) rotate(-45)" style="fill:#fff;opacity:0.05"/><rect x="2209.22" y="1226.42" width="697.61" height="17.88" transform="translate(623.53 3049.2) rotate(-45)" style="fill:#fff;opacity:0.05"/><rect x="1835.07" y="1235.71" width="2016.46" height="17.88" transform="translate(700.52 3253.64) rotate(-45)" style="fill:#fff;opacity:0.05"/><rect x="939.22" y="1700.72" width="3172.73" height="17.88" transform="translate(278.65 3165.18) rotate(-45)" style="fill:#fff;opacity:0.05"/><rect x="732.99" y="1875.06" width="3531.09" height="17.88" transform="translate(147.45 3197.12) rotate(-45)" style="fill:#fff;opacity:0.05"/><rect x="2610.58" y="1451.81" width="916.98" height="17.88" transform="translate(613.84 3476.58) rotate(-45)" style="fill:#fff;opacity:0.05"/><rect x="879.95" y="1757.14" width="2589.27" height="17.88" transform="translate(135.95 2933.51) rotate(-45)" style="fill:#fff;opacity:0.05"/><rect x="2871.69" y="1408.09" width="924.08" height="17.88" transform="translate(722.27 3650.91) rotate(-45)" style="fill:#fff;opacity:0.05"/><rect x="1465.73" y="1598.72" width="3502.01" height="17.88" transform="translate(553.21 3624.03) rotate(-45)" style="fill:#fff;opacity:0.05"/><rect x="1681.63" y="1769.12" width="3024" height="17.88" transform="translate(425.95 3657.59) rotate(-45)" style="fill:#fff;opacity:0.05"/><rect x="3042.35" y="1528.17" width="637.16" height="17.88" transform="translate(645.33 3705.32) rotate(-45)" style="fill:#fff;opacity:0.05"/><rect x="2093.25" y="1979.33" width="1927.61" height="17.88" transform="translate(237.31 3622.59) rotate(-45)" style="fill:#fff;opacity:0.05"/><rect x="1896.25" y="1896.2" width="2635.18" height="17.88" transform="translate(342.01 3709.1) rotate(-45)" style="fill:#fff;opacity:0.05"/><rect x="2269.91" y="2125.08" width="1577.38" height="17.88" transform="translate(134.7 3666.37) rotate(-45)" style="fill:#fff;opacity:0.05"/><rect x="2173.59" y="1967.14" width="2233.19" height="17.88" transform="translate(314.21 3783.87) rotate(-45)" style="fill:#fff;opacity:0.05"/><rect x="1973.79" y="2036.33" width="2641.71" height="17.88" transform="translate(266.59 3807.28) rotate(-45)" style="fill:#fff;opacity:0.05"/><rect x="3662.72" y="1651.68" width="180.44" height="17.88" transform="translate(672.81 4018.69) rotate(-45)" style="fill:#fff;opacity:0.05"/><rect x="3057.62" y="2280.63" width="427.29" height="17.88" transform="translate(86.99 3862.31) rotate(-45)" style="fill:#fff;opacity:0.05"/><rect x="2936.36" y="1982.73" width="1560.2" height="17.88" transform="translate(428.04 4089.86) rotate(-45)" style="fill:#fff;opacity:0.05"/><rect x="3435.98" y="1934.89" width="951.21" height="17.88" transform="translate(519.02 4213.82) rotate(-45)" style="fill:#fff;opacity:0.05"/><rect x="3251.05" y="2233.11" width="1019.22" height="17.88" transform="translate(263.94 4194.44) rotate(-45)" style="fill:#fff;opacity:0.05"/><rect x="2930.15" y="2365.66" width="1690.5" height="17.88" transform="translate(174.53 4243.69) rotate(-45)" style="fill:#fff;opacity:0.05"/><rect x="3125.13" y="2511.29" width="1303.85" height="17.88" transform="translate(72.04 4287.52) rotate(-45)" style="fill:#fff;opacity:0.05"/><rect x="2302.51" y="2731.72" width="2802.8" height="17.88" transform="translate(-105.25 4300.36) rotate(-45)" style="fill:#fff;opacity:0.05"/><rect x="2407.47" y="2530.87" width="3289.17" height="17.88" transform="translate(138.74 4487.7) rotate(-45)" style="fill:#fff;opacity:0.05"/><rect x="3433.66" y="2894.85" width="1097.99" height="17.88" transform="translate(-138.96 4545.24) rotate(-45)" style="fill:#fff;opacity:0.05"/><rect x="4011.35" y="2655.36" width="716.16" height="17.88" transform="translate(143.67 4748.58) rotate(-45)" style="fill:#fff;opacity:0.05"/><rect x="3034.37" y="2744.44" width="2786.54" height="17.88" transform="translate(97.73 4815.84) rotate(-45)" style="fill:#fff;opacity:0.05"/><rect x="3236.03" y="3030.21" width="1958.98" height="17.88" transform="translate(-166.47 4749.54) rotate(-45)" style="fill:#fff;opacity:0.05"/><rect x="2520.14" y="2728.81" width="2962.52" height="17.88" transform="translate(-16.07 4509.86) rotate(-45)" style="fill:#fff;opacity:0.05"/><rect x="1841.49" y="1863.32" width="3546.89" height="17.88" transform="translate(482.74 3983.09) rotate(-45)" style="fill:#fff;opacity:0.05"/><rect x="3244.36" y="1801.73" width="1158.9" height="17.88" transform="translate(587.47 4112.75) rotate(-45)" style="fill:#fff;opacity:0.05"/><rect x="3302.39" y="1722.34" width="1496.2" height="17.88" transform="translate(709.99 4249.79) rotate(-45)" style="fill:#fff;opacity:0.05"/><rect x="3180.15" y="1973.33" width="1533.3" height="17.88" transform="translate(502.15 4249.98) rotate(-45)" style="fill:#fff;opacity:0.05"/><rect x="1954.06" y="2494.99" width="3236.73" height="17.88" transform="translate(23.63 4138.04) rotate(-45)" style="fill:#fff;opacity:0.05"/><rect x="2491.51" y="2681.02" width="2084.35" height="17.88" transform="translate(-119.26 4165.14) rotate(-45)" style="fill:#fff;opacity:0.05"/><rect x="3660.41" y="2352.78" width="697.61" height="17.88" transform="translate(252.12 4405.25) rotate(-45)" style="fill:#fff;opacity:0.05"/><rect x="3318.09" y="2330.25" width="2016.46" height="17.88" transform="translate(360.93 4622.88) rotate(-45)" style="fill:#fff;opacity:0.05"/><rect x="2297.74" y="2919.76" width="3172.73" height="17.88" transform="translate(-185.44 4482.85) rotate(-45)" style="fill:#fff;opacity:0.05"/><rect x="2238.16" y="2947.45" width="3531.09" height="17.88" transform="translate(-169.99 4575.53) rotate(-45)" style="fill:#fff;opacity:0.05"/><rect x="4196.38" y="2443.57" width="916.98" height="17.88" transform="translate(377.03 4888.39) rotate(-45)" style="fill:#fff;opacity:0.05"/><rect x="2407.19" y="2807.46" width="2589.27" height="17.88" transform="translate(-159.42 4321.06) rotate(-45)" style="fill:#fff;opacity:0.05"/></g><g id="Layer_2" data-name="Layer 2"><rect x="-87.43" y="1789.64" width="924.08" height="17.88" transform="translate(-414.23 1670.26) rotate(-45)" style="fill:#fff;opacity:0.1"/><rect x="-1189.57" y="1676.47" width="3502.01" height="17.88" transform="translate(-279.48 1769.21) rotate(-45)" style="fill:#fff;opacity:0.1"/><rect x="-1184.37" y="2057.56" width="3024" height="17.88" transform="translate(-617.44 1715.51) rotate(-45)" style="fill:#fff;opacity:0.1"/><rect x="312.86" y="1680.11" width="637.16" height="17.88" transform="translate(-261.56 1819.78) rotate(-45)" style="fill:#fff;opacity:0.1"/><rect x="-551.87" y="2046.9" width="1927.61" height="17.88" transform="translate(-585.21 1772) rotate(-45)" style="fill:#fff;opacity:0.1"/><rect x="-881.51" y="2096.4" width="2635.18" height="17.88" transform="translate(-613.14 1803.57) rotate(-45)" style="fill:#fff;opacity:0.1"/><rect x="-456.3" y="2273.73" width="1577.38" height="17.88" transform="translate(-768.9 1782.19) rotate(-45)" style="fill:#fff;opacity:0.1"/><rect x="-645.76" y="2208.93" width="2233.19" height="17.88" transform="translate(-682.53 1861.11) rotate(-45)" style="fill:#fff;opacity:0.1"/><rect x="-836.96" y="2269.52" width="2641.71" height="17.88" transform="translate(-721.55 1888.09) rotate(-45)" style="fill:#fff;opacity:0.1"/><rect x="757.5" y="1979.34" width="180.44" height="17.88" transform="translate(-409.79 2060.36) rotate(-45)" style="fill:#fff;opacity:0.1"/><rect x="274.76" y="2485.94" width="427.29" height="17.88" transform="translate(-873.26 1954.66) rotate(-45)" style="fill:#fff;opacity:0.1"/><rect x="30.42" y="2311.11" width="1560.2" height="17.88" transform="translate(-655.29 2131.23) rotate(-45)" style="fill:#fff;opacity:0.1"/><rect x="616.75" y="2176.56" width="951.21" height="17.88" transform="translate(-477.6 2291.11) rotate(-45)" style="fill:#fff;opacity:0.1"/><rect x="383.92" y="2522.69" width="1019.22" height="17.88" transform="translate(-780.59 2251.89) rotate(-45)" style="fill:#fff;opacity:0.1"/><rect x="64" y="2654.26" width="1690.5" height="17.88" transform="translate(-869.02 2301.54) rotate(-45)" style="fill:#fff;opacity:0.1"/><rect x="368.49" y="2690.37" width="1303.85" height="17.88" transform="translate(-861.99 2390.73) rotate(-45)" style="fill:#fff;opacity:0.1"/><rect x="-455.56" y="2912.24" width="2802.8" height="17.88" transform="translate(-1040.72 2402.98) rotate(-45)" style="fill:#fff;opacity:0.1"/><rect x="-391.46" y="2752.25" width="3289.17" height="17.88" transform="translate(-837.59 2573.4) rotate(-45)" style="fill:#fff;opacity:0.1"/><rect x="603.97" y="3146.98" width="1097.99" height="17.88" transform="translate(-1146.04 2618.19) rotate(-45)" style="fill:#fff;opacity:0.1"/><rect x="1106.51" y="2982.65" width="716.16" height="17.88" transform="translate(-938.57 2790.41) rotate(-45)" style="fill:#fff;opacity:0.1"/><rect x="216.46" y="2984.79" width="2786.54" height="17.88" transform="translate(-897.57 2893.67) rotate(-45)" style="fill:#fff;opacity:0.1"/><rect x="527.58" y="3161.1" width="1958.98" height="17.88" transform="translate(-1052.31 2872.72) rotate(-45)" style="fill:#fff;opacity:0.1"/><rect x="-179.83" y="2851.23" width="2962.52" height="17.88" transform="translate(-893.43 2636.55) rotate(-45)" style="fill:#fff;opacity:0.1"/><rect x="-1090.5" y="2217.76" width="3546.89" height="17.88" transform="translate(-626.65 2013.67) rotate(-45)" style="fill:#fff;opacity:0.1"/><rect x="296.52" y="2172.02" width="1158.9" height="17.88" transform="translate(-537.77 2136.77) rotate(-45)" style="fill:#fff;opacity:0.1"/><rect x="350.91" y="2096.27" width="1496.2" height="17.88" transform="translate(-418.88 2272.3) rotate(-45)" style="fill:#fff;opacity:0.1"/><rect x="393.88" y="2182.04" width="1533.3" height="17.88" transform="translate(-461.51 2340.92) rotate(-45)" style="fill:#fff;opacity:0.1"/><rect x="-917.75" y="2789.25" width="3236.73" height="17.88" transform="translate(-1025.57 2193.55) rotate(-45)" style="fill:#fff;opacity:0.1"/><rect x="-296.08" y="2891.05" width="2084.35" height="17.88" transform="translate(-1084.24 2255.53) rotate(-45)" style="fill:#fff;opacity:0.1"/><rect x="889.7" y="2545.93" width="697.61" height="17.88" transform="translate(-695.98 2502.64) rotate(-45)" style="fill:#fff;opacity:0.1"/><rect x="515.56" y="2555.22" width="2016.46" height="17.88" transform="translate(-618.99 2707.08) rotate(-45)" style="fill:#fff;opacity:0.1"/><rect x="-380.3" y="3020.23" width="3172.73" height="17.88" transform="translate(-1040.86 2618.62) rotate(-45)" style="fill:#fff;opacity:0.1"/><rect x="-586.52" y="3194.57" width="3531.09" height="17.88" transform="translate(-1172.06 2650.56) rotate(-45)" style="fill:#fff;opacity:0.1"/><rect x="1291.07" y="2771.32" width="916.98" height="17.88" transform="translate(-705.67 2930.02) rotate(-45)" style="fill:#fff;opacity:0.1"/><rect x="-439.56" y="3076.65" width="2589.27" height="17.88" transform="translate(-1183.56 2386.95) rotate(-45)" style="fill:#fff;opacity:0.1"/><rect x="1510.28" y="2769.49" width="924.08" height="17.88" transform="translate(-639.13 3087) rotate(-45)" style="fill:#fff;opacity:0.1"/><rect x="157.54" y="2906.91" width="3502.01" height="17.88" transform="translate(-754.98 3082.15) rotate(-45)" style="fill:#fff;opacity:0.1"/><rect x="282.35" y="3168.4" width="3024" height="17.88" transform="translate(-973.33 3077.99) rotate(-45)" style="fill:#fff;opacity:0.1"/><rect x="1753.35" y="2817.17" width="637.16" height="17.88" transform="translate(-643.67 3171.4) rotate(-45)" style="fill:#fff;opacity:0.1"/><rect x="1021.41" y="3051.18" width="1927.61" height="17.88" transform="translate(-834.54 3178.62) rotate(-45)" style="fill:#fff;opacity:0.1"/><rect x="550.44" y="3242.01" width="2635.18" height="17.88" transform="translate(-1003.8 3151.65) rotate(-45)" style="fill:#fff;opacity:0.1"/><rect x="974.78" y="3420.21" width="1577.38" height="17.88" transform="translate(-1160.43 3129.91) rotate(-45)" style="fill:#fff;opacity:0.1"/><rect x="745.35" y="3395.38" width="2233.19" height="17.88" transform="translate(-1114.03 3192.27) rotate(-45)" style="fill:#fff;opacity:0.1"/><rect x="683.16" y="3326.96" width="2641.71" height="17.88" transform="translate(-1024.04 3272.69) rotate(-45)" style="fill:#fff;opacity:0.1"/><rect x="2295.07" y="3019.32" width="180.44" height="17.88" transform="translate(-694.84 3452.19) rotate(-45)" style="fill:#fff;opacity:0.1"/><rect x="1693.92" y="3644.34" width="427.29" height="17.88" transform="translate(-1276.71 3297.45) rotate(-45)" style="fill:#fff;opacity:0.1"/><rect x="1501.23" y="3417.86" width="1560.2" height="17.88" transform="translate(-1007.09 3495.41) rotate(-45)" style="fill:#fff;opacity:0.1"/><rect x="2214.8" y="3156.08" width="951.21" height="17.88" transform="translate(-702.17 3707.99) rotate(-45)" style="fill:#fff;opacity:0.1"/><rect x="1848.56" y="3635.6" width="1019.22" height="17.88" transform="translate(-1138.55 3613.51) rotate(-45)" style="fill:#fff;opacity:0.1"/><rect x="1593.05" y="3702.76" width="1690.5" height="17.88" transform="translate(-1162.58 3689.84) rotate(-45)" style="fill:#fff;opacity:0.1"/><rect x="1935.96" y="3700.46" width="1303.85" height="17.88" transform="translate(-1117.13 3794.95) rotate(-45)" style="fill:#fff;opacity:0.1"/><rect x="1022.51" y="4011.72" width="2802.8" height="17.88" transform="translate(-1385.26 3770.16) rotate(-45)" style="fill:#fff;opacity:0.1"/><rect x="972.52" y="3965.82" width="3289.17" height="17.88" transform="translate(-1296.21 3893.33) rotate(-45)" style="fill:#fff;opacity:0.1"/><rect x="2186.98" y="4141.52" width="1097.99" height="17.88" transform="translate(-1385.64 4028.85) rotate(-45)" style="fill:#fff;opacity:0.1"/><rect x="2621.13" y="4045.59" width="716.16" height="17.88" transform="translate(-1246.56 4172.73) rotate(-45)" style="fill:#fff;opacity:0.1"/><rect x="1686.47" y="4092.34" width="2786.54" height="17.88" transform="translate(-1250.17 4257.52) rotate(-45)" style="fill:#fff;opacity:0.1"/><rect x="1919.44" y="4346.79" width="1958.98" height="17.88" transform="translate(-1483.06 4204.19) rotate(-45)" style="fill:#fff;opacity:0.1"/><rect x="1423.25" y="3825.71" width="2962.52" height="17.88" transform="translate(-1112.96 4055.51) rotate(-45)" style="fill:#fff;opacity:0.1"/><rect x="426.96" y="3277.85" width="3546.89" height="17.88" transform="translate(-931.79 3397.18) rotate(-45)" style="fill:#fff;opacity:0.1"/><rect x="1693.86" y="3352.24" width="1158.9" height="17.88" transform="translate(-963.04 3470.51) rotate(-45)" style="fill:#fff;opacity:0.1"/><rect x="1676.92" y="3347.82" width="1496.2" height="17.88" transform="translate(-915.48 3576.49) rotate(-45)" style="fill:#fff;opacity:0.1"/><rect x="2008.51" y="3144.97" width="1533.3" height="17.88" transform="translate(-669.49 3764.67) rotate(-45)" style="fill:#fff;opacity:0.1"/><rect x="673.24" y="3775.81" width="3236.73" height="17.88" transform="translate(-1257.19 3607.51) rotate(-45)" style="fill:#fff;opacity:0.1"/><rect x="1033.45" y="4139.07" width="2084.35" height="17.88" transform="translate(-1577.31 3561.19) rotate(-45)" style="fill:#fff;opacity:0.1"/><rect x="2296.33" y="3716.86" width="697.61" height="17.88" transform="translate(-1111.96 3840.23) rotate(-45)" style="fill:#fff;opacity:0.1"/><rect x="1926.07" y="3722.27" width="2016.46" height="17.88" transform="translate(-1031.09 4046.28) rotate(-45)" style="fill:#fff;opacity:0.1"/><rect x="1210.54" y="4006.95" width="3172.73" height="17.88" transform="translate(-1272.64 4032.51) rotate(-45)" style="fill:#fff;opacity:0.1"/><rect x="740.01" y="4445.59" width="3531.09" height="17.88" transform="translate(-1668.13 3954.97) rotate(-45)" style="fill:#fff;opacity:0.1"/><rect x="2848.17" y="3791.77" width="916.98" height="17.88" transform="translate(-971.18 4329.94) rotate(-45)" style="fill:#fff;opacity:0.1"/><rect x="1100.72" y="4113.93" width="2589.27" height="17.88" transform="translate(-1465.89 3779.91) rotate(-45)" style="fill:#fff;opacity:0.1"/></g><g id="Layer_3" data-name="Layer 3"><rect x="877.04" y="985.52" width="603.4" height="17.88" transform="translate(389.89 2003.34) rotate(-45)" style="fill:#fff;opacity:0.15"/><rect x="-279.03" y="1160.74" width="3006.96" height="17.88" transform="translate(279.38 2086.98) rotate(-45)" style="fill:#fff;opacity:0.15"/><rect x="1189.05" y="943.24" width="358.51" height="17.88" transform="translate(475.31 2125) rotate(-45)" style="fill:#fff;opacity:0.15"/><rect x="548.48" y="1125.27" width="1570.18" height="17.88" transform="translate(336.42 2153.75) rotate(-45)" style="fill:#fff;opacity:0.15"/><rect x="107.23" y="1298.31" width="2253.88" height="17.88" transform="translate(184.95 2134.15) rotate(-45)" style="fill:#fff;opacity:0.15"/><rect x="788.06" y="1405.27" width="825.57" height="17.88" transform="translate(99.56 2141.92) rotate(-45)" style="fill:#fff;opacity:0.15"/><rect x="621.81" y="1273.18" width="1569.56" height="17.88" transform="translate(253.22 2248.71) rotate(-45)" style="fill:#fff;opacity:0.15"/><rect x="295.43" y="1438.65" width="2038.66" height="17.88" transform="translate(109.32 2232.24) rotate(-45)" style="fill:#fff;opacity:0.15"/><rect x="1729.81" y="1091.71" width="158.36" height="17.88" transform="translate(499.4 2480.1) rotate(-45)" style="fill:#fff;opacity:0.15"/><rect x="1058.79" y="1739" width="353.11" height="17.88" transform="translate(-126.32 2264.06) rotate(-45)" style="fill:#fff;opacity:0.15"/><rect x="997.23" y="1421.82" width="1405.19" height="17.88" transform="translate(234.01 2499.59) rotate(-45)" style="fill:#fff;opacity:0.15"/><rect x="1567.4" y="1325.63" width="751.78" height="17.88" transform="translate(373.33 2643.58) rotate(-45)" style="fill:#fff;opacity:0.15"/><rect x="1341.81" y="1758.92" width="630.97" height="17.88" transform="translate(-16.82 2568.25) rotate(-45)" style="fill:#fff;opacity:0.15"/><rect x="1363.77" y="1841.95" width="715.57" height="17.88" transform="translate(-56.71 2638.01) rotate(-45)" style="fill:#fff;opacity:0.15"/><rect x="1455" y="1805.06" width="901.45" height="17.88" transform="translate(23.32 2757.44) rotate(-45)" style="fill:#fff;opacity:0.15"/><rect x="719.46" y="2004.69" width="2562.42" height="17.88" transform="translate(-90.03 2883.05) rotate(-45)" style="fill:#fff;opacity:0.15"/><rect x="1733.99" y="2277.53" width="576.87" height="17.88" transform="translate(-276.59 2978.33) rotate(-45)" style="fill:#fff;opacity:0.15"/><rect x="2127.73" y="2153.84" width="331.33" height="17.88" transform="translate(-109.76 3133.72) rotate(-45)" style="fill:#fff;opacity:0.15"/><rect x="1340.78" y="2117.12" width="2273.26" height="17.88" transform="translate(-29.9 3253.08) rotate(-45)" style="fill:#fff;opacity:0.15"/><rect x="1723.77" y="2432.96" width="1022.86" height="17.88" transform="translate(-324.17 3174.32) rotate(-45)" style="fill:#fff;opacity:0.15"/><rect x="802.23" y="1952.31" width="2796.25" height="17.88" transform="translate(5.49 3008.89) rotate(-45)" style="fill:#fff;opacity:0.15"/><rect x="552.34" y="1473.37" width="1749.98" height="17.88" transform="translate(117.74 2322.01) rotate(-45)" style="fill:#fff;opacity:0.15"/><rect x="-112.24" y="1305.34" width="3267.93" height="17.88" transform="translate(264.21 2339.54) rotate(-45)" style="fill:#fff;opacity:0.15"/><rect x="1188.76" y="1299.64" width="1119.17" height="17.88" transform="translate(334.61 2498.12) rotate(-45)" style="fill:#fff;opacity:0.15"/><rect x="1559.21" y="1194.44" width="883.25" height="17.88" transform="translate(482.95 2645.84) rotate(-45)" style="fill:#fff;opacity:0.15"/><rect x="1434.75" y="1251.53" width="1312.57" height="17.88" transform="translate(469 2726.34) rotate(-45)" style="fill:#fff;opacity:0.15"/><rect x="696.25" y="1860.36" width="1866.5" height="17.88" transform="translate(-96.69 2578.31) rotate(-45)" style="fill:#fff;opacity:0.15"/><rect x="662.97" y="2063.09" width="1822.16" height="17.88" transform="translate(-256.28 2598.48) rotate(-45)" style="fill:#fff;opacity:0.15"/><rect x="1926.86" y="1598.1" width="518.95" height="17.88" transform="translate(251.85 2895.24) rotate(-45)" style="fill:#fff;opacity:0.15"/><rect x="1832.42" y="1664.23" width="1164.74" height="17.88" transform="translate(272 3076.15) rotate(-45)" style="fill:#fff;opacity:0.15"/><rect x="551.93" y="2220.35" width="2908.05" height="17.88" transform="translate(-240.98 2949.94) rotate(-45)" style="fill:#fff;opacity:0.15"/><rect x="2307.17" y="1890.44" width="646.54" height="17.88" transform="translate(175.21 3294.89) rotate(-45)" style="fill:#fff;opacity:0.15"/><rect x="846.37" y="2242.61" width="1685.5" height="17.88" transform="translate(-349.52 2732.42) rotate(-45)" style="fill:#fff;opacity:0.15"/><rect x="2397.83" y="2042.29" width="603.4" height="17.88" transform="translate(88.07 3388.22) rotate(-45)" style="fill:#fff;opacity:0.15"/><rect x="1180.57" y="2278.7" width="3006.96" height="17.88" transform="translate(-83.63 3446.52) rotate(-45)" style="fill:#fff;opacity:0.15"/><rect x="2702.73" y="2007.12" width="358.51" height="17.88" transform="translate(166.38 3506.94) rotate(-45)" style="fill:#fff;opacity:0.15"/><rect x="1962.95" y="2288.35" width="1570.18" height="17.88" transform="translate(-71.71 3494.59) rotate(-45)" style="fill:#fff;opacity:0.15"/><rect x="1591.86" y="2391.23" width="2253.88" height="17.88" transform="translate(-153.02 3504.05) rotate(-45)" style="fill:#fff;opacity:0.15"/><rect x="2264.78" y="2506.12" width="825.57" height="17.88" transform="translate(-246.34 3508.54) rotate(-45)" style="fill:#fff;opacity:0.15"/><rect x="2169.74" y="2302.8" width="1569.56" height="17.88" transform="translate(-21.45 3644.83) rotate(-45)" style="fill:#fff;opacity:0.15"/><rect x="1774.88" y="2536.76" width="2038.66" height="17.88" transform="translate(-233.84 3600) rotate(-45)" style="fill:#fff;opacity:0.15"/><rect x="3328.3" y="2070.78" width="158.36" height="17.88" transform="translate(275.28 3897.16) rotate(-45)" style="fill:#fff;opacity:0.15"/><rect x="2435.63" y="2939.71" width="353.11" height="17.88" transform="translate(-572.09 3589.31) rotate(-45)" style="fill:#fff;opacity:0.15"/><rect x="2566.14" y="2430.46" width="1405.19" height="17.88" transform="translate(-19.69 3904.4) rotate(-45)" style="fill:#fff;opacity:0.15"/><rect x="3126.18" y="2344.41" width="751.78" height="17.88" transform="translate(109.5 4044.2) rotate(-45)" style="fill:#fff;opacity:0.15"/><rect x="2889.2" y="2789.08" width="630.97" height="17.88" transform="translate(-292.04 3964.15) rotate(-45)" style="fill:#fff;opacity:0.15"/><rect x="2992.3" y="2790.98" width="715.57" height="17.88" transform="translate(-250.79 4067.52) rotate(-45)" style="fill:#fff;opacity:0.15"/><rect x="2905.47" y="2932.15" width="901.45" height="17.88" transform="translate(-348.82 4113.19) rotate(-45)" style="fill:#fff;opacity:0.15"/><rect x="2087.71" y="3214" width="2562.42" height="17.88" transform="translate(-544.39 4204.74) rotate(-45)" style="fill:#fff;opacity:0.15"/><rect x="3101.07" y="3488" width="576.87" height="17.88" transform="translate(-732.12 4299.54) rotate(-45)" style="fill:#fff;opacity:0.15"/><rect x="3579.69" y="3279.44" width="331.33" height="17.88" transform="translate(-480.41 4490.08) rotate(-45)" style="fill:#fff;opacity:0.15"/><rect x="2975.87" y="3059.58" width="2273.26" height="17.88" transform="translate(-217.41 4685.3) rotate(-45)" style="fill:#fff;opacity:0.15"/><rect x="3347.39" y="3386.91" width="1022.86" height="17.88" transform="translate(-523.17 4601.79) rotate(-45)" style="fill:#fff;opacity:0.15"/><rect x="2356.15" y="2975.94" width="2796.25" height="17.88" transform="translate(-263.19 4407.5) rotate(-45)" style="fill:#fff;opacity:0.15"/><rect x="2040.22" y="2563.05" width="1749.98" height="17.88" transform="translate(-216.99 3693.26) rotate(-45)" style="fill:#fff;opacity:0.15"/><rect x="1373.02" y="2397.63" width="3267.93" height="17.88" transform="translate(-73.14 3709.7) rotate(-45)" style="fill:#fff;opacity:0.15"/><rect x="2819.96" y="2246" width="1119.17" height="17.88" transform="translate(143.2 3928.73) rotate(-45)" style="fill:#fff;opacity:0.15"/><rect x="3113.72" y="2217.49" width="883.25" height="17.88" transform="translate(214.85 4044.69) rotate(-45)" style="fill:#fff;opacity:0.15"/><rect x="2803.06" y="2460.78" width="1312.57" height="17.88" transform="translate(14.69 4048.06) rotate(-45)" style="fill:#fff;opacity:0.15"/><rect x="2085.3" y="3048.87" width="1866.5" height="17.88" transform="translate(-530.25 3908.62) rotate(-45)" style="fill:#fff;opacity:0.15"/><rect x="2244.17" y="3059.45" width="1822.16" height="17.88" transform="translate(-497.69 4008.39) rotate(-45)" style="fill:#fff;opacity:0.15"/><rect x="3304.16" y="2798.36" width="518.95" height="17.88" transform="translate(-193.46 4220.68) rotate(-45)" style="fill:#fff;opacity:0.15"/><rect x="3190.25" y="2883.95" width="1164.74" height="17.88" transform="translate(-192.77 4393.53) rotate(-45)" style="fill:#fff;opacity:0.15"/><rect x="1900.51" y="3449.32" width="2908.05" height="17.88" transform="translate(-715 4263.49) rotate(-45)" style="fill:#fff;opacity:0.15"/><rect x="3947.18" y="2827.98" width="646.54" height="17.88" transform="translate(-7.38 4729.16) rotate(-45)" style="fill:#fff;opacity:0.15"/><rect x="2430.35" y="3236.18" width="1685.5" height="17.88" transform="translate(-588.14 4143.48) rotate(-45)" style="fill:#fff;opacity:0.15"/></g><g id="Layer_4" data-name="Layer 4"><rect x="1982.92" y="666.91" width="326.86" height="13.33" transform="translate(900.2 2593.56) rotate(-45)" style="fill:#fff;opacity:0.2"/><rect x="1968.89" y="495.49" width="807.56" height="13.33" transform="translate(1087.7 2703.38) rotate(-45)" style="fill:#fff;opacity:0.2"/><rect x="1237.62" y="250.22" width="1794.7" height="17.88" transform="translate(1189.9 2464.13) rotate(-45)" style="fill:#fff;opacity:0.2"/><rect x="2150.27" y="740.8" width="63.98" height="13.33" transform="translate(858.47 2640.59) rotate(-45)" style="fill:#fff;opacity:0.2"/><rect x="1491.54" y="334.92" width="1264.74" height="17.88" transform="translate(1126.77 2481.12) rotate(-45)" style="fill:#fff;opacity:0.2"/><rect x="1061.47" y="493.23" width="1955.56" height="17.88" transform="translate(990.03 2467.63) rotate(-45)" style="fill:#fff;opacity:0.2"/><rect x="1726.92" y="692.35" width="373.7" height="17.88" transform="translate(812.48 2437.22) rotate(-45)" style="fill:#fff;opacity:0.2"/><rect x="1825" y="484.5" width="740.54" height="17.88" transform="translate(1041.9 2575.39) rotate(-45)" style="fill:#fff;opacity:0.2"/><rect x="1502.33" y="591.7" width="1318.75" height="17.88" transform="translate(956.27 2583.06) rotate(-45)" style="fill:#fff;opacity:0.2"/><rect x="2610.36" y="739.48" width="24.82" height="13.33" transform="translate(988.43 2951.69) rotate(-45)" style="fill:#fff;opacity:0.2"/><rect x="1922.54" y="970.21" width="163.2" height="17.88" transform="translate(642.47 2582.5) rotate(-45)" style="fill:#fff;opacity:0.2"/><rect x="2364.11" y="556.29" width="402.47" height="17.88" transform="translate(1099.53 2858.1) rotate(-45)" style="fill:#fff;opacity:0.2"/><rect x="2548.27" y="481.81" width="477.7" height="17.88" transform="translate(1217.15 2993.1) rotate(-45)" style="fill:#fff;opacity:0.2"/><rect x="2298.5" y="850.12" width="535.19" height="17.88" transform="translate(891.98 2944.69) rotate(-45)" style="fill:#fff;opacity:0.2"/><rect x="2537.99" y="959.63" width="131.77" height="17.88" transform="translate(825.61 3003.48) rotate(-45)" style="fill:#fff;opacity:0.2"/><rect x="2299.29" y="980.46" width="862.09" height="17.88" transform="translate(847.92 3099) rotate(-45)" style="fill:#fff;opacity:0.2"/><rect x="1782.48" y="1345.93" width="1459.34" height="17.88" transform="translate(525.59 3051.77) rotate(-45)" style="fill:#fff;opacity:0.2"/><rect x="2220.03" y="1283.87" width="1002.93" height="17.88" transform="translate(630.79 3181.62) rotate(-45)" style="fill:#fff;opacity:0.2"/><rect x="2639.77" y="1409.01" width="502.34" height="17.88" transform="translate(591.93 3338.08) rotate(-45)" style="fill:#fff;opacity:0.2"/><rect x="3022.01" y="1334.69" width="181.08" height="17.88" transform="translate(709.39 3473.02) rotate(-45)" style="fill:#fff;opacity:0.2"/><rect x="2878.2" y="1428.31" width="576.03" height="17.88" transform="translate(658.91 3538.39) rotate(-45)" style="fill:#fff;opacity:0.2"/><rect x="2803.69" y="1565.66" width="597.64" height="17.88" transform="translate(543.13 3533.57) rotate(-45)" style="fill:#fff;opacity:0.2"/><rect x="2373.39" y="1214.55" width="1129.44" height="17.88" transform="translate(743.25 3314.48) rotate(-45)" style="fill:#fff;opacity:0.2"/><rect x="2264.01" y="595.46" width="82.46" height="17.88" transform="translate(995.65 2685.65) rotate(-45)" style="fill:#fff;opacity:0.2"/><rect x="2208.71" y="440.38" width="355.94" height="17.88" transform="translate(1129.16 2697.81) rotate(-45)" style="fill:#fff;opacity:0.2"/><rect x="2173.46" y="414.17" width="920.73" height="17.88" transform="translate(1220.08 2864.89) rotate(-45)" style="fill:#fff;opacity:0.2"/><rect x="2698.56" y="816.89" width="132.78" height="13.33" transform="translate(975.33 3074.91) rotate(-45)" style="fill:#fff;opacity:0.2"/><rect x="2712.69" y="363.11" width="533.53" height="17.88" transform="translate(1357.42 3094.34) rotate(-45)" style="fill:#fff;opacity:0.2"/><rect x="2122.38" y="1153.67" width="427.62" height="17.88" transform="translate(610 2871.03) rotate(-45)" style="fill:#fff;opacity:0.2"/><rect x="2071.41" y="1202.24" width="726.99" height="17.88" transform="translate(604.57 2955.06) rotate(-45)" style="fill:#fff;opacity:0.2"/><rect x="2898.73" y="885.02" width="1.36" height="17.88" transform="translate(964.93 3190.61) rotate(-45)" style="fill:#fff;opacity:0.2"/><rect x="2847.86" y="796.64" width="869.03" height="17.88" transform="translate(1139.59 3435.51) rotate(-45)" style="fill:#fff;opacity:0.2"/><rect x="2352.79" y="1489.76" width="767.51" height="17.88" transform="translate(489.61 3252.56) rotate(-45)" style="fill:#fff;opacity:0.2"/><rect x="2655.62" y="1707.79" width="20.35" height="17.88" transform="translate(314.72 3266.4) rotate(-45)" style="fill:#fff;opacity:0.2"/><rect x="3060" y="1159.43" width="602.9" height="17.88" transform="translate(906.22 3597.69) rotate(-45)" style="fill:#fff;opacity:0.2"/><rect x="1999.7" y="1477.97" width="908.1" height="17.88" transform="translate(415.12 3049.15) rotate(-45)" style="fill:#fff;opacity:0.2"/><rect x="178.85" y="1766.17" width="438.47" height="17.88" transform="translate(-390.76 1679.98) rotate(-45)" style="fill:#fff;opacity:0.2"/><rect x="160.03" y="1536.21" width="1083.31" height="17.88" transform="translate(-139.23 1827.31) rotate(-45)" style="fill:#fff;opacity:0.2"/><rect x="-461.83" y="1949.66" width="1794.7" height="17.88" transform="translate(-509.54 1760.2) rotate(-45)" style="fill:#fff;opacity:0.2"/><rect x="403.35" y="1865.29" width="85.82" height="17.88" transform="translate(-446.74 1743.08) rotate(-45)" style="fill:#fff;opacity:0.2"/><rect x="-207.91" y="2034.37" width="1264.74" height="17.88" transform="translate(-572.68 1777.19) rotate(-45)" style="fill:#fff;opacity:0.2"/><rect x="-637.97" y="2192.67" width="1955.56" height="17.88" transform="translate(-709.41 1763.69) rotate(-45)" style="fill:#fff;opacity:0.2"/><rect x="27.48" y="2391.8" width="373.7" height="17.88" transform="translate(-886.97 1733.29) rotate(-45)" style="fill:#fff;opacity:0.2"/><rect x="125.55" y="2183.95" width="740.54" height="17.88" transform="translate(-657.54 1871.46) rotate(-45)" style="fill:#fff;opacity:0.2"/><rect x="-197.11" y="2291.15" width="1318.75" height="17.88" transform="translate(-743.18 1879.13) rotate(-45)" style="fill:#fff;opacity:0.2"/><rect x="1020.55" y="1863.51" width="33.29" height="17.88" transform="translate(-272.4 2160.41) rotate(-45)" style="fill:#fff;opacity:0.2"/><rect x="223.09" y="2669.66" width="163.2" height="17.88" transform="translate(-1056.98 1878.57) rotate(-45)" style="fill:#fff;opacity:0.2"/><rect x="664.67" y="2255.74" width="402.47" height="17.88" transform="translate(-599.92 2154.17) rotate(-45)" style="fill:#fff;opacity:0.2"/><rect x="848.82" y="2181.25" width="477.7" height="17.88" transform="translate(-482.29 2289.17) rotate(-45)" style="fill:#fff;opacity:0.2"/><rect x="599.05" y="2549.57" width="535.19" height="17.88" transform="translate(-807.47 2240.76) rotate(-45)" style="fill:#fff;opacity:0.2"/><rect x="838.54" y="2659.08" width="131.77" height="17.88" transform="translate(-873.84 2299.55) rotate(-45)" style="fill:#fff;opacity:0.2"/><rect x="599.84" y="2679.91" width="862.09" height="17.88" transform="translate(-851.52 2395.07) rotate(-45)" style="fill:#fff;opacity:0.2"/><rect x="83.04" y="3045.37" width="1459.34" height="17.88" transform="translate(-1173.85 2347.83) rotate(-45)" style="fill:#fff;opacity:0.2"/><rect x="520.58" y="2983.32" width="1002.93" height="17.88" transform="translate(-1068.66 2477.69) rotate(-45)" style="fill:#fff;opacity:0.2"/><rect x="940.32" y="3108.46" width="502.34" height="17.88" transform="translate(-1107.52 2634.15) rotate(-45)" style="fill:#fff;opacity:0.2"/><rect x="1322.56" y="3034.13" width="181.08" height="17.88" transform="translate(-990.05 2769.09) rotate(-45)" style="fill:#fff;opacity:0.2"/><rect x="1178.75" y="3127.76" width="576.03" height="17.88" transform="translate(-1040.54 2834.45) rotate(-45)" style="fill:#fff;opacity:0.2"/><rect x="1104.24" y="3265.11" width="597.64" height="17.88" transform="translate(-1156.32 2829.64) rotate(-45)" style="fill:#fff;opacity:0.2"/><rect x="673.94" y="2914" width="1129.44" height="17.88" transform="translate(-956.2 2610.55) rotate(-45)" style="fill:#fff;opacity:0.2"/><rect x="564.57" y="2294.9" width="82.46" height="17.88" transform="translate(-703.79 1981.72) rotate(-45)" style="fill:#fff;opacity:0.2"/><rect x="509.26" y="2139.83" width="355.94" height="17.88" transform="translate(-570.28 1993.88) rotate(-45)" style="fill:#fff;opacity:0.2"/><rect x="474.01" y="2113.62" width="920.73" height="17.88" transform="translate(-479.37 2160.96) rotate(-45)" style="fill:#fff;opacity:0.2"/><rect x="1138.86" y="1967.35" width="178.12" height="17.88" transform="translate(-289.96 2325.69) rotate(-45)" style="fill:#fff;opacity:0.2"/><rect x="1013.25" y="2062.56" width="533.53" height="17.88" transform="translate(-342.03 2390.41) rotate(-45)" style="fill:#fff;opacity:0.2"/><rect x="422.94" y="2853.11" width="427.62" height="17.88" transform="translate(-1089.44 2167.1) rotate(-45)" style="fill:#fff;opacity:0.2"/><rect x="371.97" y="2901.68" width="726.99" height="17.88" transform="translate(-1094.87 2251.13) rotate(-45)" style="fill:#fff;opacity:0.2"/><rect x="1199.29" y="2584.47" width="1.36" height="17.88" transform="translate(-734.52 2486.67) rotate(-45)" style="fill:#fff;opacity:0.2"/><rect x="1148.41" y="2496.09" width="869.03" height="17.88" transform="translate(-559.86 2731.58) rotate(-45)" style="fill:#fff;opacity:0.2"/><rect x="653.35" y="3189.2" width="767.51" height="17.88" transform="translate(-1209.83 2548.63) rotate(-45)" style="fill:#fff;opacity:0.2"/><rect x="956.18" y="3407.24" width="20.35" height="17.88" transform="translate(-1384.73 2562.47) rotate(-45)" style="fill:#fff;opacity:0.2"/><rect x="1360.56" y="2858.87" width="602.9" height="17.88" transform="translate(-793.22 2893.75) rotate(-45)" style="fill:#fff;opacity:0.2"/><rect x="300.26" y="3177.42" width="908.1" height="17.88" transform="translate(-1284.32 2345.21) rotate(-45)" style="fill:#fff;opacity:0.2"/><rect x="3304.47" y="1218.11" width="438.47" height="17.88" transform="translate(912.25 3729.6) rotate(-45)" style="fill:#fff;opacity:0.2"/><rect x="3285.3" y="988.51" width="1083.31" height="17.88" transform="translate(1163.42 3876.78) rotate(-45)" style="fill:#fff;opacity:0.2"/><rect x="2872.94" y="1192.46" width="1794.7" height="17.88" transform="translate(1002.61 3896.45) rotate(-45)" style="fill:#fff;opacity:0.2"/><rect x="3447.19" y="1399" width="85.82" height="17.88" transform="translate(774.5 3758.83) rotate(-45)" style="fill:#fff;opacity:0.2"/><rect x="3037.29" y="1366.73" width="1264.74" height="17.88" transform="translate(849.91 3876.34) rotate(-45)" style="fill:#fff;opacity:0.2"/><rect x="2578.07" y="1554.18" width="1955.56" height="17.88" transform="translate(684.03 3850.77) rotate(-45)" style="fill:#fff;opacity:0.2"/><rect x="3060.81" y="1936.02" width="373.7" height="17.88" transform="translate(323.76 3744.68) rotate(-45)" style="fill:#fff;opacity:0.2"/><rect x="3335.38" y="1551.67" width="740.54" height="17.88" transform="translate(729.68 3955.96) rotate(-45)" style="fill:#fff;opacity:0.2"/><rect x="3136.07" y="1535.53" width="1318.75" height="17.88" transform="translate(767.39 4014.72) rotate(-45)" style="fill:#fff;opacity:0.2"/><rect x="4121.24" y="1340.38" width="33.29" height="17.88" transform="translate(1005.68 4199.71) rotate(-45)" style="fill:#fff;opacity:0.2"/><rect x="3551.05" y="1919.25" width="163.2" height="17.88" transform="translate(448.38 4012) rotate(-45)" style="fill:#fff;opacity:0.2"/><rect x="3691.15" y="1806.81" width="402.47" height="17.88" transform="translate(603.96 4162.73) rotate(-45)" style="fill:#fff;opacity:0.2"/><rect x="4002.65" y="1604.98" width="477.7" height="17.88" transform="translate(848.92 4350.47) rotate(-45)" style="fill:#fff;opacity:0.2"/><rect x="3686.48" y="2039.7" width="535.19" height="17.88" transform="translate(457.35 4274.56) rotate(-45)" style="fill:#fff;opacity:0.2"/><rect x="4113.15" y="1962.02" width="131.77" height="17.88" transform="translate(578.17 4410.88) rotate(-45)" style="fill:#fff;opacity:0.2"/><rect x="3726.81" y="2130.5" width="862.09" height="17.88" transform="translate(452.83 4445.25) rotate(-45)" style="fill:#fff;opacity:0.2"/><rect x="3212.96" y="2493" width="1459.34" height="17.88" transform="translate(133.47 4399.24) rotate(-45)" style="fill:#fff;opacity:0.2"/><rect x="3556.12" y="2525.34" width="1002.93" height="17.88" transform="translate(144.27 4489.99) rotate(-45)" style="fill:#fff;opacity:0.2"/><rect x="4037.55" y="2588.79" width="502.34" height="17.88" transform="translate(167.1 4672.01) rotate(-45)" style="fill:#fff;opacity:0.2"/><rect x="4435.75" y="2498.5" width="181.08" height="17.88" transform="translate(300.53 4813.56) rotate(-45)" style="fill:#fff;opacity:0.2"/><rect x="4396.47" y="2487.6" width="576.03" height="17.88" transform="translate(354.57 4922.22) rotate(-45)" style="fill:#fff;opacity:0.2"/><rect x="4340.14" y="2606.77" width="597.64" height="17.88" transform="translate(256.97 4924.94) rotate(-45)" style="fill:#fff;opacity:0.2"/><rect x="3716.82" y="2448.68" width="1129.44" height="17.88" transform="translate(264.07 4625.9) rotate(-45)" style="fill:#fff;opacity:0.2"/><rect x="3771.58" y="1665.44" width="82.46" height="17.88" transform="translate(680.62 4065.06) rotate(-45)" style="fill:#fff;opacity:0.2"/><rect x="3832.34" y="1394.3" width="355.94" height="17.88" transform="translate(930.18 4125.29) rotate(-45)" style="fill:#fff;opacity:0.2"/><rect x="3512.89" y="1652.29" width="920.73" height="17.88" transform="translate(736.91 4174.66) rotate(-45)" style="fill:#fff;opacity:0.2"/><rect x="4284.71" y="1399.07" width="178.12" height="17.88" transform="translate(1033.27 4383.69) rotate(-45)" style="fill:#fff;opacity:0.2"/><rect x="4345.86" y="1307.5" width="533.53" height="17.88" transform="translate(1167.98 4525.77) rotate(-45)" style="fill:#fff;opacity:0.2"/><rect x="3468.8" y="2384.8" width="427.62" height="17.88" transform="translate(133.82 4183.69) rotate(-45)" style="fill:#fff;opacity:0.2"/><rect x="3608.67" y="2242.54" width="726.99" height="17.88" transform="translate(319.22 4346.76) rotate(-45)" style="fill:#fff;opacity:0.2"/><rect x="4467.69" y="1893.62" width="1.36" height="17.88" transform="translate(711.28 4595.44) rotate(-45)" style="fill:#fff;opacity:0.2"/><rect x="4256.26" y="1965.79" width="869.03" height="17.88" transform="translate(725.38 4773.84) rotate(-45)" style="fill:#fff;opacity:0.2"/><rect x="3935.08" y="2485.02" width="767.51" height="17.88" transform="translate(249.29 4662.92) rotate(-45)" style="fill:#fff;opacity:0.2"/><rect x="3987.64" y="2953.33" width="20.35" height="17.88" transform="translate(-175.87 4573.09) rotate(-45)" style="fill:#fff;opacity:0.2"/><rect x="4462.63" y="2334.36" width="602.9" height="17.88" transform="translate(486.24 4933.62) rotate(-45)" style="fill:#fff;opacity:0.2"/><rect x="3360.97" y="2694.25" width="908.1" height="17.88" transform="translate(-46.22 4367.95) rotate(-45)" style="fill:#fff;opacity:0.2"/><rect x="1521.39" y="3001.19" width="438.47" height="17.88" transform="translate(-870.83 2991.03) rotate(-45)" style="fill:#fff;opacity:0.2"/><rect x="1747.51" y="2526.29" width="1083.31" height="17.88" transform="translate(-374.36 3239.81) rotate(-45)" style="fill:#fff;opacity:0.2"/><rect x="916.48" y="3148.91" width="1794.7" height="17.88" transform="translate(-953.84 3086.06) rotate(-45)" style="fill:#fff;opacity:0.2"/><rect x="1980.98" y="2865.22" width="85.82" height="17.88" transform="translate(-691.72 3151.5) rotate(-45)" style="fill:#fff;opacity:0.2"/><rect x="1282.08" y="3121.94" width="1264.74" height="17.88" transform="translate(-905.3 3149.31) rotate(-45)" style="fill:#fff;opacity:0.2"/><rect x="763.95" y="3368.31" width="1955.56" height="17.88" transform="translate(-1130.1 3099.33) rotate(-45)" style="fill:#fff;opacity:0.2"/><rect x="1667.55" y="3329.28" width="373.7" height="17.88" transform="translate(-1069.5 3167.57) rotate(-45)" style="fill:#fff;opacity:0.2"/><rect x="1699.48" y="3187.57" width="740.54" height="17.88" transform="translate(-906.22 3278.35) rotate(-45)" style="fill:#fff;opacity:0.2"/><rect x="1282.78" y="3388.82" width="1318.75" height="17.88" transform="translate(-1085.9 3247.06) rotate(-45)" style="fill:#fff;opacity:0.2"/><rect x="2617.59" y="2844.03" width="33.29" height="17.88" transform="translate(-497.97 3576.87) rotate(-45)" style="fill:#fff;opacity:0.2"/><rect x="1834.69" y="3635.61" width="163.2" height="17.88" transform="translate(-1267.98 3301.06) rotate(-45)" style="fill:#fff;opacity:0.2"/><rect x="2059.87" y="3438.09" width="402.47" height="17.88" transform="translate(-1027.32 3487.03) rotate(-45)" style="fill:#fff;opacity:0.2"/><rect x="2284.67" y="3322.96" width="477.7" height="17.88" transform="translate(-869.06 3638.86) rotate(-45)" style="fill:#fff;opacity:0.2"/><rect x="2126.97" y="3599.21" width="535.19" height="17.88" transform="translate(-1102.16 3628.59) rotate(-45)" style="fill:#fff;opacity:0.2"/><rect x="2258.74" y="3816.43" width="131.77" height="17.88" transform="translate(-1276.24 3642.76) rotate(-45)" style="fill:#fff;opacity:0.2"/><rect x="2008.59" y="3848.71" width="862.09" height="17.88" transform="translate(-1265.38 3733.54) rotate(-45)" style="fill:#fff;opacity:0.2"/><rect x="1423.97" y="4282" width="1459.34" height="17.88" transform="translate(-1655.53 3658.21) rotate(-45)" style="fill:#fff;opacity:0.2"/><rect x="2065" y="4016.46" width="1002.93" height="17.88" transform="translate(-1346.85 3872.35) rotate(-45)" style="fill:#fff;opacity:0.2"/><rect x="2324.58" y="4301.75" width="502.34" height="17.88" transform="translate(-1545.86 3962.48) rotate(-45)" style="fill:#fff;opacity:0.2"/><rect x="2748.65" y="4185.6" width="181.08" height="17.88" transform="translate(-1386.57 4114.74) rotate(-45)" style="fill:#fff;opacity:0.2"/><rect x="2632.71" y="4251.36" width="576.03" height="17.88" transform="translate(-1409.19 4191.65) rotate(-45)" style="fill:#fff;opacity:0.2"/><rect x="2723.27" y="4223.64" width="597.64" height="17.88" transform="translate(-1359.9 4255.21) rotate(-45)" style="fill:#fff;opacity:0.2"/><rect x="2135.14" y="4030.35" width="1129.44" height="17.88" transform="translate(-1317.6 3970.75) rotate(-45)" style="fill:#fff;opacity:0.2"/><rect x="1930.7" y="3506.33" width="82.46" height="17.88" transform="translate(-1160.27 3302.54) rotate(-45)" style="fill:#fff;opacity:0.2"/><rect x="1930.63" y="3296.01" width="355.94" height="17.88" transform="translate(-971.52 3337.58) rotate(-45)" style="fill:#fff;opacity:0.2"/><rect x="1990.16" y="3175.02" width="920.73" height="17.88" transform="translate(-785.83 3543.92) rotate(-45)" style="fill:#fff;opacity:0.2"/><rect x="2743.23" y="2940.55" width="178.12" height="17.88" transform="translate(-508.21 3745.19) rotate(-45)" style="fill:#fff;opacity:0.2"/><rect x="2576" y="3077.37" width="533.53" height="17.88" transform="translate(-601.89 3792.67) rotate(-45)" style="fill:#fff;opacity:0.2"/><rect x="1985.95" y="3867.65" width="427.62" height="17.88" transform="translate(-1349.03 3569.47) rotate(-45)" style="fill:#fff;opacity:0.2"/><rect x="1925.96" y="3925.25" width="726.99" height="17.88" transform="translate(-1363.49 3649.76) rotate(-45)" style="fill:#fff;opacity:0.2"/><rect x="2647.42" y="3713.89" width="1.36" height="17.88" transform="translate(-1108.99 3841.46) rotate(-45)" style="fill:#fff;opacity:0.2"/><rect x="2600.31" y="3621.74" width="869.03" height="17.88" transform="translate(-930.57 4087.92) rotate(-45)" style="fill:#fff;opacity:0.2"/><rect x="2242.24" y="4177.86" width="767.51" height="17.88" transform="translate(-1443.54 3961.72) rotate(-45)" style="fill:#fff;opacity:0.2"/><rect x="2386.36" y="4554.61" width="20.35" height="17.88" transform="translate(-1777.16 3909.81) rotate(-45)" style="fill:#fff;opacity:0.2"/><rect x="2894.83" y="3902.15" width="602.9" height="17.88" transform="translate(-1081.55 4284.22) rotate(-45)" style="fill:#fff;opacity:0.2"/><rect x="1681.17" y="4374.06" width="908.1" height="17.88" transform="translate(-1726.02 3672.16) rotate(-45)" style="fill:#fff;opacity:0.2"/></g></svg>