<svg id="Layer_1" data-name="Layer 1" xmlns="http://www.w3.org/2000/svg" viewBox="0 0 800 800"><title>Sketching_1</title><rect x="664.24" y="347.74" width="28.62" height="28.62" style="fill:#e54e3f"/><path d="M714.76,650.15H85.24c-26.86,0-48.72-23.31-48.72-52V112c0-28.63,21.87-51.94,48.76-52H714.71c26.9,0,48.77,23.33,48.77,52V598.19C763.48,626.84,741.62,650.15,714.76,650.15ZM85.29,85.52C72.48,85.53,62,97.39,62,112V598.19c0,14.58,10.41,26.44,23.2,26.44H714.76c12.79,0,23.2-11.86,23.2-26.44V112c0-14.57-10.44-26.43-23.26-26.44Z" style="fill:#e54e3f"/><path d="M580,574.67H139.09c-20.93,0-38-18.6-38-41.48V177c0-22.86,17-41.46,38-41.48H580c21,0,38,18.62,38,41.48V533.19C618,556.07,601,574.67,580,574.67ZM139.12,161c-6.75,0-12.47,7.31-12.47,16V533.19c0,8.65,5.7,16,12.44,16H580c6.74,0,12.43-7.31,12.43-16V177c0-8.65-5.71-16-12.48-16Z" style="fill:#e54e3f"/><path d="M566.9,467.12l-113-129-65.88-21.76L404,385.19,526.21,505.64A28,28,0,0,0,565,506l.06,0A28,28,0,0,0,566.9,467.12Zm-18.51,21.21a3.84,3.84,0,0,1-5.22,0l-117-115.17-4.81-19.45,19.06,6.08,108.23,123.3A3.81,3.81,0,0,1,548.39,488.33Z" style="fill:#e54e3f"/><path d="M359.84,246l-88.69-51.75a10.62,10.62,0,0,0-5.93-1.3,10.43,10.43,0,0,0-4.41,1.35L172.21,246a10.33,10.33,0,0,0-5.19,9V358.42a10.39,10.39,0,0,0,5.17,8.9L260.82,419a10.41,10.41,0,0,0,10.41,0l88.6-51.68a10.41,10.41,0,0,0,5.18-9V255A10.34,10.34,0,0,0,359.84,246Zm-104.2,66.6V392l-67.87-39.57V273ZM334,254.92l-68,39.69-68-39.69,68-39.62Zm10.22,18v79.45L276.39,392v-79.4Z" style="fill:#e54e3f"/></svg>