<svg id="Layer_1" data-name="Layer 1" xmlns="http://www.w3.org/2000/svg" viewBox="0 0 800 800"><title>UX_UI_1</title><rect x="621.28" y="607.94" width="25.53" height="25.53" style="fill:#e54e3f"/><path d="M770.21,255.75H681.09V94.91a35,35,0,0,0-35-34.91H35A35,35,0,0,0,0,94.91v433a35,35,0,0,0,34.91,34.9l228.92-.43v67.81h-34v25.53H340.43V679a19.91,19.91,0,0,0,19.88,19.89H499.25A19.92,19.92,0,0,0,519.15,679v-6.19H770.21A29.82,29.82,0,0,0,800,643V285.54A29.82,29.82,0,0,0,770.21,255.75ZM34.91,550.08V537.31a9.5,9.5,0,0,1-9.38-9.37v-433A9.41,9.41,0,0,1,35,85.53H646.13a9.41,9.41,0,0,1,9.42,9.38V255.74H497.86a29.81,29.81,0,0,0-29.77,29.79V391.86l-108.44-.55a20.45,20.45,0,0,0-20.44,20.56l1.06,124.85-305.34.59Zm254.45,80.14V562.36l51.07-.1v68H289.36Zm204.26,43.1H366V562.21H366l-.06-7.32V417.46H480.57l13.05.07V673.32ZM774.47,643a4.31,4.31,0,0,1-4.26,4.25H519.15V411.82a19.92,19.92,0,0,0-19.9-19.89h-5.63V285.54a4.3,4.3,0,0,1,4.24-4.25H770.21a4.31,4.31,0,0,1,4.26,4.25Z" style="fill:#e54e3f"/><rect x="417.02" y="633.47" width="25.53" height="25.53" style="fill:#e54e3f"/><path d="M183.58,141.89a52.36,52.36,0,1,0,52.36,52.35A52.42,52.42,0,0,0,183.58,141.89Zm0,81.93a29.57,29.57,0,1,1,29.58-29.58A29.6,29.6,0,0,1,183.58,223.82Z" style="fill:#e54e3f"/><path d="M183.58,248.4a93.42,93.42,0,0,0-93.31,93.31c0,6.71,4.69,11.4,11.4,11.4H265.5c6.71,0,11.41-4.69,11.41-11.4A93.42,93.42,0,0,0,183.58,248.4Zm0,22.79a70.18,70.18,0,0,1,69.07,58.09.76.76,0,0,1-.2.69.87.87,0,0,1-.7.35H115.52a1.06,1.06,0,0,1-.78-.37.94.94,0,0,1-.21-.75A70.2,70.2,0,0,1,183.58,271.19Z" style="fill:#e54e3f"/></svg>