<svg id="Layer_1" data-name="Layer 1" xmlns="http://www.w3.org/2000/svg" viewBox="0 0 800 800"><title>VCD_1</title><path d="M699.57,60H94.38A34.67,34.67,0,0,0,59.75,94.58v429a34.62,34.62,0,0,0,34.58,34.58l226.76-.43v67.16H287.38v25.3H506.57v-25.3H472.86V557.69l226.75.43a34.62,34.62,0,0,0,34.58-34.58v-429A34.66,34.66,0,0,0,699.57,60Zm-252,564.85H346.39V557.62l50.58-.09,50.59.09ZM708.91,523.54a9.42,9.42,0,0,1-9.3,9.27L397,532.24l-302.64.57A9.41,9.41,0,0,1,85,523.54v-429a9.32,9.32,0,0,1,9.34-9.28H699.57a9.33,9.33,0,0,1,9.34,9.28Z" style="fill:#e54e3f"/><path d="M584.91,183.76a12.53,12.53,0,0,0,12.53-12.53V121.12a12.52,12.52,0,0,0-12.53-12.53H534.8a12.53,12.53,0,0,0-12.53,12.53v12.51h-87.7V121.12A12.53,12.53,0,0,0,422,108.59H371.91a12.52,12.52,0,0,0-12.53,12.53v12.51H271.67V121.12a12.52,12.52,0,0,0-12.53-12.53H209a12.52,12.52,0,0,0-12.53,12.53v50.11A12.53,12.53,0,0,0,209,183.76h12.52v87.7H209A12.53,12.53,0,0,0,196.5,284v50.12A12.52,12.52,0,0,0,209,346.65h12.52v87.71H209a12.52,12.52,0,0,0-12.53,12.53V497A12.52,12.52,0,0,0,209,509.53h50.11A12.52,12.52,0,0,0,271.67,497V484.48h87.71V497a12.52,12.52,0,0,0,12.53,12.53H422A12.53,12.53,0,0,0,434.57,497V446.89A12.54,12.54,0,0,0,422,434.36H371.91a12.53,12.53,0,0,0-12.53,12.53v12.53H271.67V446.89a12.53,12.53,0,0,0-12.53-12.53H246.61V346.65h12.53a12.53,12.53,0,0,0,12.53-12.53V284a12.54,12.54,0,0,0-12.53-12.54H246.61v-87.7h12.53a12.54,12.54,0,0,0,12.53-12.53V158.7h87.71v12.53a12.54,12.54,0,0,0,12.53,12.53H422a12.54,12.54,0,0,0,12.53-12.53V158.7h87.7v12.53a12.54,12.54,0,0,0,12.53,12.53h12.53v87.7H534.8A12.55,12.55,0,0,0,522.27,284v50.12a12.54,12.54,0,0,0,12.53,12.53h50.11a12.52,12.52,0,0,0,12.53-12.53V284a12.53,12.53,0,0,0-12.53-12.54H572.4v-87.7ZM384.44,459.42H409.5v25.06H384.44ZM246.61,484.48H221.55V459.42h25.06Zm0-162.89H221.55V296.53h25.06Zm0-162.89H221.55V133.63h25.06Zm162.89,0H384.44V133.63H409.5ZM572.4,321.59H547.33V296.53H572.4ZM547.33,158.7V133.63H572.4V158.7Z" style="fill:#e54e3f"/><path d="M566.72,433.59,456.09,324.81a50.84,50.84,0,0,0,.46-6.76,47.36,47.36,0,0,0-11.18-30.57c-10.64-12.89-22.18-15.75-31.44-18.05-6.76-1.66-10.76-2.79-14.47-6.34s-6.37-7.79-8.8-11.6c-4-6.2-8.49-13.26-17.2-13.43-3.82-.11-9.23,1.25-14,8-16.79,24-11.23,81.53,5.43,103.93a50.79,50.79,0,0,0,40.64,20.19c.51,0,1,0,1.52,0l122.7,104.06a27.51,27.51,0,0,0,38-2.47l0,0A27.45,27.45,0,0,0,566.72,433.59ZM383.93,335.77c-9.55-12.86-13.32-45.78-9.15-65.18a69.17,69.17,0,0,0,8.2,9.65c8.47,8.13,17.77,10.43,25.22,12.29,7.65,1.9,13.19,3.27,18.82,10.09,11.18,13.56,3.69,29.85-3.73,37.05-.51.45-1.05.89-1.6,1.3a27,27,0,0,1-37.76-5.2ZM550.19,455.69a3.76,3.76,0,0,1-5.11.37L440.69,367.51a89.34,89.34,0,0,0,11.77-12.89L550,450.54A3.72,3.72,0,0,1,550.19,455.69Z" style="fill:#e54e3f"/></svg>